<?xml version="1.0" encoding="UTF-8"?>
<svg width="117px" height="38px" viewBox="0 0 117 38" version="1.1" xmlns="http://www.w3.org/2000/svg" xmlns:xlink="http://www.w3.org/1999/xlink">
    <!-- Generator: sketchtool 53.2 (72643) - https://sketchapp.com -->
    <title>D741A9E9-8A24-4BD1-B228-96BD7A583B7B</title>
    <desc>Created with sketchtool.</desc>
    <g id="Novir" stroke="none" stroke-width="1" fill="none" fill-rule="evenodd">
        <g id="Home-Copy" transform="translate(-430.000000, -2133.000000)" fill-rule="nonzero">
            <g id="Footer" transform="translate(0.000000, 2104.000000)">
                <g id="ssl-icon" transform="translate(430.000000, 29.000000)">
                    <g id="_" fill="#77BC1F">
                        <path d="M25.2628866,12.6751779 C26.2141449,12.6650672 27.129647,13.038967 27.8041237,13.7130435 C28.5013844,14.3580733 28.8927158,15.2706208 28.8804124,16.2228458 L28.8804124,34.3036364 C28.8927158,35.2558615 28.5013844,36.1684089 27.8041237,36.8134387 C27.1294008,37.4869649 26.2139291,37.8603112 25.2628866,37.8498024 L3.7371134,37.8498024 C2.78607087,37.8603112 1.87059923,37.4869649 1.19587629,36.8134387 C0.49861558,36.1684089 0.10728418,35.2558615 0.119587629,34.3036364 L0.119587629,16.2213439 C0.107710451,15.2696397 0.499005862,14.3577222 1.19587629,13.7130435 C1.87035302,13.038967 2.78585508,12.6650672 3.7371134,12.6751779 L5.50252577,12.6751779 L5.50252577,9.04189723 C5.49046052,7.4485025 5.90671883,5.88138479 6.70737113,4.50592885 C7.49137462,3.13836371 8.61994885,2.00233369 9.97958763,1.21209486 C12.7791225,-0.401971985 16.2208775,-0.401971985 19.0204124,1.21209486 C20.3800512,2.00233369 21.5086254,3.13836371 22.2926289,4.50592885 C23.0938392,5.88334265 23.5100989,7.45254157 23.4974742,9.04790514 L23.4974742,12.6751779 L25.2628866,12.6751779 Z M20.0533838,12.6751779 L20.0533505,9.04189723 C20.0567582,8.06840301 19.798532,7.1120408 19.3059278,6.27375494 C18.8154873,5.42045422 18.1102289,4.71183153 17.2609794,4.21905138 C15.5616394,3.20982319 13.4503194,3.20982319 11.7509794,4.21905138 C10.8995354,4.71099465 10.1921431,5.41968926 9.70005155,6.27375494 C9.20744735,7.1120408 8.94922117,8.06840301 8.95262887,9.04189723 L8.95259557,12.6751779 L20.0533838,12.6751779 Z M14.5,28.8965217 C15.9657594,28.9114188 17.2931133,28.0288628 17.8524538,26.6674792 C18.4117943,25.3060956 18.0906052,23.7397387 17.0412371,22.7113834 C16.3751674,22.0194022 15.4580975,21.6286819 14.5,21.6286819 C13.5419025,21.6286819 12.6248326,22.0194022 11.9587629,22.7113834 C10.9387059,23.7500058 10.6360241,25.3010259 11.1901816,26.6497944 C11.7443391,27.9985629 13.0478076,28.8833663 14.5,28.8965217 Z" id="Shape"/>
                    </g>
                    <circle id="Oval-Copy" fill="#77BC1F" cx="17.5" cy="28.5" r="8.5"/>
                    <g id="check---material-copy" transform="translate(6.000000, 19.000000)" fill="#FFFFFF">
                        <polygon id="Path" points="5.13207547 9.43111111 14.7169811 0 16 1.25777778 5.13207547 11.9244444 0.0890566038 6.97777778 1.34943396 5.71851852"/>
                    </g>
                    <g id="SECURE-SSL-ENCRYPTIO" transform="translate(34.000000, 29.000000)" fill="#A0A2A2">
                        <g id="Group" transform="translate(0.199803, 0.648059)">
                            <path d="M0.940345946,5.10926507 C0.940345946,5.10926507 1.72921671,5.83851032 2.60657297,5.83851032 C2.95751548,5.83851032 3.33845307,5.700545 3.33845307,5.27603633 C3.33845307,4.43914781 0.199467322,4.46795376 0.199467322,2.29992733 C0.199467322,0.999111478 1.28079017,0.140997523 2.66506339,0.140997523 C4.16481769,0.140997523 4.91469484,0.939983485 4.91469484,0.939983485 L4.19331302,2.34995871 C4.19331302,2.34995871 3.49142801,1.72835673 2.65306536,1.72835673 C2.30212285,1.72835673 1.91218673,1.87996697 1.91218673,2.280218 C1.91218673,3.1671379 5.05117248,3.00946325 5.05117248,5.23661767 C5.05117248,6.41008092 4.16481769,7.42435343 2.59457494,7.42435343 C1.64694721,7.44169463 0.730795311,7.08050064 0.044992629,6.41917754 L0.940345946,5.10926507 Z" id="Path"/>
                            <path d="M6.59891892,5.10926507 C6.59891892,5.10926507 7.38928943,5.83851032 8.2666457,5.83851032 C8.61758821,5.83851032 8.9985258,5.700545 8.9985258,5.27603633 C8.9985258,4.43914781 5.85804029,4.46795376 5.85804029,2.29992733 C5.85804029,0.999111478 6.9408629,0.140997523 8.32513612,0.140997523 C9.82489042,0.140997523 10.5672688,0.939983485 10.5672688,0.939983485 L9.84588698,2.34995871 C9.84588698,2.34995871 9.14400197,1.72835673 8.30563931,1.72835673 C7.95469681,1.72835673 7.56476069,1.87996697 7.56476069,2.280218 C7.56476069,3.1671379 10.7037464,3.00946325 10.7037464,5.23661767 C10.7037464,6.41008092 9.81739165,7.42435343 8.24714889,7.42435343 C7.29952116,7.44169463 6.38336927,7.08050064 5.69756658,6.41917754 L6.59891892,5.10926507 Z" id="Path"/>
                            <polygon id="Path" points="11.8675558 0.260769612 13.5727764 0.260769612 13.5727764 5.82789761 16.4223096 5.82789761 16.4223096 7.30609744 11.8675558 7.30609744"/>
                            <polygon id="Path" points="19.5882909 0.260769612 23.9555754 0.260769612 23.9555754 1.73896945 21.2965111 1.73896945 21.2965111 3.02007597 23.4216629 3.02007597 23.4216629 4.49827581 21.2965111 4.49827581 21.2965111 5.82789761 24.0950526 5.82789761 24.0950526 7.30609744 19.5957897 7.30609744"/>
                            <path d="M25.3203518,0.260769612 L27.0450693,0.260769612 L28.9752531,3.55222791 C29.1913186,3.94213833 29.3865664,4.34346978 29.5601572,4.75449711 L29.5796541,4.75449711 C29.5796541,4.75449711 29.5016668,3.99644591 29.5016668,3.55222791 L29.5016668,0.260769612 L31.2083872,0.260769612 L31.2083872,7.30609744 L29.4926683,7.30609744 L27.5519862,4.02525186 C27.3362314,3.63517648 27.1409918,3.23386195 26.9670821,2.82298266 L26.9475853,2.82298266 C26.9475853,2.82298266 27.0255725,3.58103386 27.0255725,4.02525186 L27.0255725,7.30609744 L25.3203518,7.30609744 L25.3203518,0.260769612 Z" id="Path"/>
                            <path d="M36.0240983,0.140997523 C37.7488157,0.140997523 38.6366703,1.1370768 38.6366703,1.1370768 L37.8462998,2.43789265 C37.8462998,2.43789265 37.0664275,1.71926012 36.1020855,1.71926012 C34.7658044,1.71926012 34.1329081,2.71382329 34.1329081,3.72961189 C34.1329081,4.77420644 34.8152963,5.85215524 36.1020855,5.85215524 C37.1519135,5.85215524 37.9542821,4.98494467 37.9542821,4.98494467 L38.8316383,6.24634187 C38.0975548,7.01564171 37.0813555,7.44367353 36.0240983,7.42890173 C33.840456,7.42890173 32.3676973,5.86276796 32.3676973,3.77357886 C32.3676973,1.71926012 33.9274418,0.140997523 36.0240983,0.140997523 Z" id="Path"/>
                            <path d="M39.8634693,0.260769612 L42.2930713,0.260769612 C43.0054545,0.260769612 43.3428993,0.309284889 43.6428501,0.427540875 C44.4317209,0.730761354 44.9296393,1.45242609 44.9296393,2.47731131 C44.9296393,3.2262659 44.5786968,4.04496119 43.8798113,4.39972915 L43.8798113,4.41943848 C43.9764107,4.55475126 44.0645675,4.69602304 44.1437681,4.84243105 L45.4935469,7.30609744 L43.6083558,7.30609744 L42.3695587,4.93188109 L41.5701897,4.93188109 L41.5701897,7.30609744 L39.8634693,7.30609744 L39.8634693,0.260769612 Z M42.3110683,3.45368126 C42.8569789,3.45368126 43.1989229,3.15046078 43.1989229,2.58647069 C43.1989229,2.05431874 43.0039548,1.73896945 42.1490948,1.73896945 L41.5731892,1.73896945 L41.5731892,3.45368126 L42.3110683,3.45368126 Z" id="Shape"/>
                            <path d="M47.8286644,4.41943848 L45.5280413,0.260769612 L47.4687233,0.260769612 L48.2575941,1.95577209 C48.4825572,2.43789265 48.6775253,2.97004459 48.6775253,2.97004459 L48.6970221,2.97004459 C48.6970221,2.97004459 48.8919902,2.43789265 49.1154536,1.95577209 L49.8953258,0.260769612 L51.8360079,0.260769612 L49.5353848,4.41943848 L49.5353848,7.30003303 L47.8286644,7.30003303 L47.8286644,4.41943848 Z" id="Path"/>
                            <path d="M52.6143803,0.260769612 L55.5104059,0.260769612 C56.8601848,0.260769612 57.7825337,1.2644294 57.7825337,2.68653344 C57.7825337,4.10863749 56.8661838,5.1304905 55.5104059,5.1304905 L54.3211007,5.1304905 L54.3211007,7.30761354 L52.6143803,7.30761354 L52.6143803,0.260769612 Z M55.1639627,3.65077457 C55.7638644,3.65077457 56.0518172,3.24597523 56.0518172,2.68501734 C56.0518172,2.12405945 55.7518663,1.73896945 55.1939577,1.73896945 L54.3211007,1.73896945 L54.3211007,3.65077457 L55.1639627,3.65077457 Z" id="Shape"/>
                            <polygon id="Path" points="60.1311489 1.73896945 58.0149956 1.73896945 58.0149956 0.260769612 63.9525229 0.260769612 63.9525229 1.73896945 61.8363695 1.73896945 61.8363695 7.30609744 60.1311489 7.30609744"/>
                            <polygon id="Path" points="64.8103823 0.260769612 66.5156029 0.260769612 66.5156029 7.30609744 64.8103823 7.30609744"/>
                            <path d="M71.3223155,0.140997523 C73.4219715,0.140997523 74.9682182,1.71926012 74.9682182,3.73870851 C74.9682182,5.80818827 73.4279705,7.42435343 71.3223155,7.42435343 C69.2166604,7.42435343 67.6764128,5.80818827 67.6764128,3.73870851 C67.6764128,1.71926012 69.2166604,0.140997523 71.3223155,0.140997523 Z M71.3223155,5.84760694 C72.3721435,5.84760694 73.2030074,4.9379455 73.2030074,3.73870851 C73.2030074,2.58647069 72.3646447,1.71926012 71.3223155,1.71926012 C70.2799862,1.71926012 69.4386241,2.58647069 69.4386241,3.73870851 C69.4386241,4.9409777 70.2784865,5.84760694 71.3223155,5.84760694 Z" id="Shape"/>
                            <path d="M76.1275283,0.260769612 L77.8537455,0.260769612 L79.7869287,3.55222791 C80.0029943,3.94213833 80.1982421,4.34346978 80.3718329,4.75449711 L80.3868305,4.75449711 C80.3868305,4.75449711 80.3088432,3.99644591 80.3088432,3.55222791 L80.3088432,0.260769612 L82.0140639,0.260769612 L82.0140639,7.30609744 L80.2998447,7.30609744 L78.3606624,4.02525186 C78.1449075,3.63517648 77.9496679,3.23386195 77.7757582,2.82298266 L77.7562614,2.82298266 C77.7562614,2.82298266 77.8342486,3.58103386 77.8342486,4.02525186 L77.8342486,7.30609744 L76.1275283,7.30609744 L76.1275283,0.260769612 Z" id="Path"/>
                        </g>
                    </g>
                    <path d="M38.920166,23.4446289 C38.920166,23.065558 38.7863783,22.7745697 38.5187988,22.5716553 C38.2512194,22.3687408 37.7695836,22.1546805 37.073877,21.9294678 C36.3781703,21.7042551 35.8274109,21.4823904 35.421582,21.2638672 C34.3155869,20.6662731 33.7625977,19.8613169 33.7625977,18.8489746 C33.7625977,18.322735 33.9108791,17.8533631 34.2074463,17.4408447 C34.5040135,17.0283264 34.9299045,16.706121 35.4851318,16.4742187 C36.0403592,16.2423165 36.663587,16.1263672 37.354834,16.1263672 C38.0505406,16.1263672 38.6704237,16.2523506 39.214502,16.5043213 C39.7585802,16.7562919 40.1811264,17.1119443 40.4821533,17.5712891 C40.7831802,18.0306338 40.9336914,18.5524059 40.9336914,19.1366211 L38.9268555,19.1366211 C38.9268555,18.6906553 38.7863784,18.3439221 38.5054199,18.0964111 C38.2244615,17.8489001 37.8297877,17.7251465 37.3213867,17.7251465 C36.8308244,17.7251465 36.4495294,17.828832 36.1774902,18.0362061 C35.9054511,18.2435801 35.7694336,18.5167301 35.7694336,18.8556641 C35.7694336,19.1722998 35.928864,19.4376454 36.2477295,19.651709 C36.566595,19.8657726 37.035967,20.0664541 37.6558594,20.2537598 C38.7975317,20.5971534 39.6292454,21.0230443 40.1510254,21.5314453 C40.6728053,22.0398463 40.9336914,22.6731082 40.9336914,23.43125 C40.9336914,24.2741253 40.6148307,24.9352596 39.9770996,25.4146729 C39.3393686,25.8940861 38.4808973,26.1337891 37.4016602,26.1337891 C36.6524377,26.1337891 35.9701203,25.9966566 35.3546875,25.7223877 C34.7392547,25.4481187 34.2698828,25.0723982 33.9465576,24.5952148 C33.6232324,24.1180315 33.4615723,23.5650422 33.4615723,22.9362305 L35.4750977,22.9362305 C35.4750977,24.011008 36.1172787,24.5483887 37.4016602,24.5483887 C37.8788435,24.5483887 38.2512194,24.4513926 38.5187988,24.2573975 C38.7863783,24.0634024 38.920166,23.7924822 38.920166,23.4446289 Z M44.4255859,26 L42.41875,26 L42.41875,16.2601563 L44.4255859,16.2601563 L44.4255859,26 Z M53.4229004,17.8856934 L50.4394043,17.8856934 L50.4394043,26 L48.4325684,26 L48.4325684,17.8856934 L45.489209,17.8856934 L45.489209,16.2601563 L53.4229004,16.2601563 L53.4229004,17.8856934 Z M60.4267578,21.7789551 L56.5736328,21.7789551 L56.5736328,24.3878418 L61.0957031,24.3878418 L61.0957031,26 L54.5667969,26 L54.5667969,16.2601563 L61.0823242,16.2601563 L61.0823242,17.8856934 L56.5736328,17.8856934 L56.5736328,20.2069336 L60.4267578,20.2069336 L60.4267578,21.7789551 Z M70.7352051,23.4446289 C70.7352051,23.065558 70.6014174,22.7745697 70.3338379,22.5716553 C70.0662584,22.3687408 69.5846226,22.1546805 68.888916,21.9294678 C68.1932094,21.7042551 67.6424499,21.4823904 67.2366211,21.2638672 C66.130626,20.6662731 65.5776367,19.8613169 65.5776367,18.8489746 C65.5776367,18.322735 65.7259181,17.8533631 66.0224854,17.4408447 C66.3190526,17.0283264 66.7449435,16.706121 67.3001709,16.4742187 C67.8553983,16.2423165 68.4786261,16.1263672 69.169873,16.1263672 C69.8655797,16.1263672 70.4854628,16.2523506 71.029541,16.5043213 C71.5736193,16.7562919 71.9961655,17.1119443 72.2971924,17.5712891 C72.5982193,18.0306338 72.7487305,18.5524059 72.7487305,19.1366211 L70.7418945,19.1366211 C70.7418945,18.6906553 70.6014174,18.3439221 70.320459,18.0964111 C70.0395005,17.8489001 69.6448268,17.7251465 69.1364258,17.7251465 C68.6458634,17.7251465 68.2645684,17.828832 67.9925293,18.0362061 C67.7204902,18.2435801 67.5844727,18.5167301 67.5844727,18.8556641 C67.5844727,19.1722998 67.743903,19.4376454 68.0627686,19.651709 C68.3816341,19.8657726 68.851006,20.0664541 69.4708984,20.2537598 C70.6125708,20.5971534 71.4442845,21.0230443 71.9660645,21.5314453 C72.4878444,22.0398463 72.7487305,22.6731082 72.7487305,23.43125 C72.7487305,24.2741253 72.4298697,24.9352596 71.7921387,25.4146729 C71.1544076,25.8940861 70.2959364,26.1337891 69.2166992,26.1337891 C68.4674767,26.1337891 67.7851593,25.9966566 67.1697266,25.7223877 C66.5542938,25.4481187 66.0849219,25.0723982 65.7615967,24.5952148 C65.4382715,24.1180315 65.2766113,23.5650422 65.2766113,22.9362305 L67.2901367,22.9362305 C67.2901367,24.011008 67.9323178,24.5483887 69.2166992,24.5483887 C69.6938826,24.5483887 70.0662584,24.4513926 70.3338379,24.2573975 C70.6014174,24.0634024 70.7352051,23.7924822 70.7352051,23.4446289 Z M79.9666504,21.7789551 L76.1135254,21.7789551 L76.1135254,24.3878418 L80.6355957,24.3878418 L80.6355957,26 L74.1066895,26 L74.1066895,16.2601563 L80.6222168,16.2601563 L80.6222168,17.8856934 L76.1135254,17.8856934 L76.1135254,20.2069336 L79.9666504,20.2069336 L79.9666504,21.7789551 Z M89.5191895,24.7691406 C89.1579572,25.2017274 88.647334,25.5373116 87.9873047,25.7759033 C87.3272753,26.014495 86.5959025,26.1337891 85.7931641,26.1337891 C84.9502888,26.1337891 84.2111116,25.9498309 83.5756104,25.5819092 C82.9401091,25.2139874 82.4495541,24.6799514 82.1039307,23.9797852 C81.7583072,23.2796189 81.5810385,22.4568244 81.5721191,21.511377 L81.5721191,20.8491211 C81.5721191,19.8769157 81.7360091,19.0351679 82.0637939,18.3238525 C82.3915788,17.6125371 82.8642954,17.0684671 83.481958,16.691626 C84.0996206,16.3147849 84.8231892,16.1263672 85.6526855,16.1263672 C86.8077369,16.1263672 87.710804,16.4017469 88.3619141,16.9525146 C89.0130241,17.5032824 89.3987787,18.3048938 89.5191895,19.357373 L87.5658691,19.357373 C87.476676,18.7999158 87.2793391,18.3918633 86.9738525,18.1332031 C86.668366,17.874543 86.2480496,17.7452148 85.7128906,17.7452148 C85.030563,17.7452148 84.5110207,18.0016413 84.154248,18.514502 C83.7974754,19.0273626 83.616862,19.7899526 83.6124023,20.8022949 L83.6124023,21.4244141 C83.6124023,22.4456757 83.8063945,23.2171849 84.1943848,23.7389648 C84.582375,24.2607448 85.1509728,24.5216309 85.9001953,24.5216309 C86.6538775,24.5216309 87.1912582,24.3610856 87.5123535,24.0399902 L87.5123535,22.3609375 L85.6861328,22.3609375 L85.6861328,20.8825684 L89.5191895,20.8825684 L89.5191895,24.7691406 Z M98.5165039,16.2601563 L98.5165039,22.6753418 C98.5165039,23.7412 98.1831495,24.5840627 97.5164307,25.2039551 C96.8497118,25.8238475 95.9388404,26.1337891 94.7837891,26.1337891 C93.6465763,26.1337891 92.7435092,25.8327667 92.0745605,25.2307129 C91.4056119,24.6286591 91.0644532,23.801405 91.0510742,22.7489258 L91.0510742,16.2601563 L93.0579102,16.2601563 L93.0579102,22.6887207 C93.0579102,23.3264518 93.2106511,23.7913641 93.5161377,24.0834717 C93.8216242,24.3755793 94.2441705,24.5216309 94.7837891,24.5216309 C95.9120825,24.5216309 96.4851399,23.9285053 96.5029785,22.7422363 L96.5029785,16.2601563 L98.5165039,16.2601563 Z M103.767725,22.4345215 L102.168945,22.4345215 L102.168945,26 L100.162109,26 L100.162109,16.2601563 L103.781104,16.2601563 C104.931695,16.2601563 105.819154,16.5165827 106.443506,17.0294434 C107.067858,17.542304 107.380029,18.2669875 107.380029,19.2035156 C107.380029,19.8680046 107.236207,20.4221088 106.94856,20.8658447 C106.660912,21.3095807 106.224987,21.6630032 105.640771,21.926123 L107.747949,25.9063477 L107.747949,26 L105.593945,26 L103.767725,22.4345215 Z M102.168945,20.8089844 L103.787793,20.8089844 C104.291734,20.8089844 104.681948,20.6807711 104.958447,20.4243408 C105.234946,20.1679105 105.373193,19.8144879 105.373193,19.3640625 C105.373193,18.9047178 105.24275,18.5434909 104.98186,18.2803711 C104.72097,18.0172513 104.320722,17.8856934 103.781104,17.8856934 L102.168945,17.8856934 L102.168945,20.8089844 Z M116.905811,21.3508301 C116.905811,22.3096565 116.736346,23.1502894 116.397412,23.8727539 C116.058478,24.5952185 115.573498,25.1526673 114.942456,25.5451172 C114.311414,25.9375671 113.587846,26.1337891 112.771729,26.1337891 C111.96453,26.1337891 111.244307,25.9397969 110.611035,25.5518066 C109.977764,25.1638164 109.487209,24.6097123 109.139355,23.8894775 C108.791502,23.1692428 108.615348,22.3408738 108.610889,21.4043457 L108.610889,20.9227051 C108.610889,19.9638787 108.783698,19.1199011 109.129321,18.3907471 C109.474945,17.661593 109.96327,17.1019144 110.594312,16.7116943 C111.225353,16.3214743 111.946692,16.1263672 112.75835,16.1263672 C113.570007,16.1263672 114.291346,16.3214743 114.922388,16.7116943 C115.553429,17.1019144 116.041754,17.661593 116.387378,18.3907471 C116.733001,19.1199011 116.905811,19.9616489 116.905811,20.9160156 L116.905811,21.3508301 Z M114.872217,20.9093262 C114.872217,19.8880646 114.689374,19.1120958 114.323682,18.5813965 C113.95799,18.0506972 113.436218,17.7853516 112.75835,17.7853516 C112.084941,17.7853516 111.565399,18.0473525 111.199707,18.5713623 C110.834015,19.0953721 110.648942,19.8635366 110.644482,20.8758789 L110.644482,21.3508301 C110.644482,22.3453337 110.827326,23.116843 111.193018,23.6653809 C111.55871,24.2139188 112.084941,24.4881836 112.771729,24.4881836 C113.445137,24.4881836 113.962449,24.2239528 114.323682,23.6954834 C114.684914,23.167014 114.867757,22.3966196 114.872217,21.3842773 L114.872217,20.9093262 Z" id="SITESEGURO" fill="#FFFFFF"/>
                </g>
            </g>
        </g>
    </g>
</svg>